G04 #@! TF.GenerationSoftware,KiCad,Pcbnew,(5.1.2)-2*
G04 #@! TF.CreationDate,2019-12-14T12:33:53+00:00*
G04 #@! TF.ProjectId,PlutoPTT,506c7574-6f50-4545-942e-6b696361645f,rev?*
G04 #@! TF.SameCoordinates,Original*
G04 #@! TF.FileFunction,Soldermask,Bot*
G04 #@! TF.FilePolarity,Negative*
%FSLAX46Y46*%
G04 Gerber Fmt 4.6, Leading zero omitted, Abs format (unit mm)*
G04 Created by KiCad (PCBNEW (5.1.2)-2) date 2019-12-14 12:33:53*
%MOMM*%
%LPD*%
G04 APERTURE LIST*
%ADD10C,0.100000*%
G04 APERTURE END LIST*
D10*
G36*
X60008433Y-55784893D02*
G01*
X60098657Y-55802839D01*
X60204267Y-55846585D01*
X60353621Y-55908449D01*
X60353622Y-55908450D01*
X60583086Y-56061772D01*
X60778228Y-56256914D01*
X60829491Y-56333635D01*
X60931551Y-56486379D01*
X61037161Y-56741344D01*
X61091000Y-57012012D01*
X61091000Y-57287988D01*
X61037161Y-57558656D01*
X60931551Y-57813621D01*
X60880675Y-57889763D01*
X60778228Y-58043086D01*
X60583086Y-58238228D01*
X60429763Y-58340675D01*
X60353621Y-58391551D01*
X60204267Y-58453415D01*
X60098657Y-58497161D01*
X60008433Y-58515107D01*
X59827988Y-58551000D01*
X59552012Y-58551000D01*
X59371567Y-58515107D01*
X59281343Y-58497161D01*
X59175733Y-58453415D01*
X59026379Y-58391551D01*
X58950237Y-58340675D01*
X58796914Y-58238228D01*
X58601772Y-58043086D01*
X58499325Y-57889763D01*
X58448449Y-57813621D01*
X58342839Y-57558656D01*
X58289000Y-57287988D01*
X58289000Y-57012012D01*
X58342839Y-56741344D01*
X58448449Y-56486379D01*
X58550509Y-56333635D01*
X58601772Y-56256914D01*
X58796914Y-56061772D01*
X59026378Y-55908450D01*
X59026379Y-55908449D01*
X59175733Y-55846585D01*
X59281343Y-55802839D01*
X59371567Y-55784893D01*
X59552012Y-55749000D01*
X59827988Y-55749000D01*
X60008433Y-55784893D01*
X60008433Y-55784893D01*
G37*
G36*
X80328433Y-55784893D02*
G01*
X80418657Y-55802839D01*
X80524267Y-55846585D01*
X80673621Y-55908449D01*
X80673622Y-55908450D01*
X80903086Y-56061772D01*
X81098228Y-56256914D01*
X81149491Y-56333635D01*
X81251551Y-56486379D01*
X81357161Y-56741344D01*
X81411000Y-57012012D01*
X81411000Y-57287988D01*
X81357161Y-57558656D01*
X81251551Y-57813621D01*
X81200675Y-57889763D01*
X81098228Y-58043086D01*
X80903086Y-58238228D01*
X80749763Y-58340675D01*
X80673621Y-58391551D01*
X80524267Y-58453415D01*
X80418657Y-58497161D01*
X80328433Y-58515107D01*
X80147988Y-58551000D01*
X79872012Y-58551000D01*
X79691567Y-58515107D01*
X79601343Y-58497161D01*
X79495733Y-58453415D01*
X79346379Y-58391551D01*
X79270237Y-58340675D01*
X79116914Y-58238228D01*
X78921772Y-58043086D01*
X78819325Y-57889763D01*
X78768449Y-57813621D01*
X78662839Y-57558656D01*
X78609000Y-57287988D01*
X78609000Y-57012012D01*
X78662839Y-56741344D01*
X78768449Y-56486379D01*
X78870509Y-56333635D01*
X78921772Y-56256914D01*
X79116914Y-56061772D01*
X79346378Y-55908450D01*
X79346379Y-55908449D01*
X79495733Y-55846585D01*
X79601343Y-55802839D01*
X79691567Y-55784893D01*
X79872012Y-55749000D01*
X80147988Y-55749000D01*
X80328433Y-55784893D01*
X80328433Y-55784893D01*
G37*
G36*
X70156564Y-56139389D02*
G01*
X70347833Y-56218615D01*
X70347835Y-56218616D01*
X70405152Y-56256914D01*
X70519973Y-56333635D01*
X70666365Y-56480027D01*
X70781385Y-56652167D01*
X70860611Y-56843436D01*
X70901000Y-57046484D01*
X70901000Y-57253516D01*
X70860611Y-57456564D01*
X70781385Y-57647833D01*
X70781384Y-57647835D01*
X70666365Y-57819973D01*
X70519973Y-57966365D01*
X70347835Y-58081384D01*
X70347834Y-58081385D01*
X70347833Y-58081385D01*
X70156564Y-58160611D01*
X69953516Y-58201000D01*
X69746484Y-58201000D01*
X69543436Y-58160611D01*
X69352167Y-58081385D01*
X69352166Y-58081385D01*
X69352165Y-58081384D01*
X69180027Y-57966365D01*
X69033635Y-57819973D01*
X68918616Y-57647835D01*
X68918615Y-57647833D01*
X68839389Y-57456564D01*
X68799000Y-57253516D01*
X68799000Y-57046484D01*
X68839389Y-56843436D01*
X68918615Y-56652167D01*
X69033635Y-56480027D01*
X69180027Y-56333635D01*
X69294848Y-56256914D01*
X69352165Y-56218616D01*
X69352167Y-56218615D01*
X69543436Y-56139389D01*
X69746484Y-56099000D01*
X69953516Y-56099000D01*
X70156564Y-56139389D01*
X70156564Y-56139389D01*
G37*
G36*
X75236564Y-56139389D02*
G01*
X75427833Y-56218615D01*
X75427835Y-56218616D01*
X75485152Y-56256914D01*
X75599973Y-56333635D01*
X75746365Y-56480027D01*
X75861385Y-56652167D01*
X75940611Y-56843436D01*
X75981000Y-57046484D01*
X75981000Y-57253516D01*
X75940611Y-57456564D01*
X75861385Y-57647833D01*
X75861384Y-57647835D01*
X75746365Y-57819973D01*
X75599973Y-57966365D01*
X75427835Y-58081384D01*
X75427834Y-58081385D01*
X75427833Y-58081385D01*
X75236564Y-58160611D01*
X75033516Y-58201000D01*
X74826484Y-58201000D01*
X74623436Y-58160611D01*
X74432167Y-58081385D01*
X74432166Y-58081385D01*
X74432165Y-58081384D01*
X74260027Y-57966365D01*
X74113635Y-57819973D01*
X73998616Y-57647835D01*
X73998615Y-57647833D01*
X73919389Y-57456564D01*
X73879000Y-57253516D01*
X73879000Y-57046484D01*
X73919389Y-56843436D01*
X73998615Y-56652167D01*
X74113635Y-56480027D01*
X74260027Y-56333635D01*
X74374848Y-56256914D01*
X74432165Y-56218616D01*
X74432167Y-56218615D01*
X74623436Y-56139389D01*
X74826484Y-56099000D01*
X75033516Y-56099000D01*
X75236564Y-56139389D01*
X75236564Y-56139389D01*
G37*
G36*
X75236564Y-48519389D02*
G01*
X75427833Y-48598615D01*
X75427835Y-48598616D01*
X75599973Y-48713635D01*
X75746365Y-48860027D01*
X75861385Y-49032167D01*
X75940611Y-49223436D01*
X75981000Y-49426484D01*
X75981000Y-49633516D01*
X75940611Y-49836564D01*
X75861385Y-50027833D01*
X75861384Y-50027835D01*
X75746365Y-50199973D01*
X75599973Y-50346365D01*
X75427835Y-50461384D01*
X75427834Y-50461385D01*
X75427833Y-50461385D01*
X75236564Y-50540611D01*
X75033516Y-50581000D01*
X74826484Y-50581000D01*
X74623436Y-50540611D01*
X74432167Y-50461385D01*
X74432166Y-50461385D01*
X74432165Y-50461384D01*
X74260027Y-50346365D01*
X74113635Y-50199973D01*
X73998616Y-50027835D01*
X73998615Y-50027833D01*
X73919389Y-49836564D01*
X73879000Y-49633516D01*
X73879000Y-49426484D01*
X73919389Y-49223436D01*
X73998615Y-49032167D01*
X74113635Y-48860027D01*
X74260027Y-48713635D01*
X74432165Y-48598616D01*
X74432167Y-48598615D01*
X74623436Y-48519389D01*
X74826484Y-48479000D01*
X75033516Y-48479000D01*
X75236564Y-48519389D01*
X75236564Y-48519389D01*
G37*
G36*
X70156564Y-48519389D02*
G01*
X70347833Y-48598615D01*
X70347835Y-48598616D01*
X70519973Y-48713635D01*
X70666365Y-48860027D01*
X70781385Y-49032167D01*
X70860611Y-49223436D01*
X70901000Y-49426484D01*
X70901000Y-49633516D01*
X70860611Y-49836564D01*
X70781385Y-50027833D01*
X70781384Y-50027835D01*
X70666365Y-50199973D01*
X70519973Y-50346365D01*
X70347835Y-50461384D01*
X70347834Y-50461385D01*
X70347833Y-50461385D01*
X70156564Y-50540611D01*
X69953516Y-50581000D01*
X69746484Y-50581000D01*
X69543436Y-50540611D01*
X69352167Y-50461385D01*
X69352166Y-50461385D01*
X69352165Y-50461384D01*
X69180027Y-50346365D01*
X69033635Y-50199973D01*
X68918616Y-50027835D01*
X68918615Y-50027833D01*
X68839389Y-49836564D01*
X68799000Y-49633516D01*
X68799000Y-49426484D01*
X68839389Y-49223436D01*
X68918615Y-49032167D01*
X69033635Y-48860027D01*
X69180027Y-48713635D01*
X69352165Y-48598616D01*
X69352167Y-48598615D01*
X69543436Y-48519389D01*
X69746484Y-48479000D01*
X69953516Y-48479000D01*
X70156564Y-48519389D01*
X70156564Y-48519389D01*
G37*
G36*
X75236564Y-45979389D02*
G01*
X75427833Y-46058615D01*
X75427835Y-46058616D01*
X75599973Y-46173635D01*
X75746365Y-46320027D01*
X75861385Y-46492167D01*
X75940611Y-46683436D01*
X75981000Y-46886484D01*
X75981000Y-47093516D01*
X75940611Y-47296564D01*
X75861385Y-47487833D01*
X75861384Y-47487835D01*
X75746365Y-47659973D01*
X75599973Y-47806365D01*
X75427835Y-47921384D01*
X75427834Y-47921385D01*
X75427833Y-47921385D01*
X75236564Y-48000611D01*
X75033516Y-48041000D01*
X74826484Y-48041000D01*
X74623436Y-48000611D01*
X74432167Y-47921385D01*
X74432166Y-47921385D01*
X74432165Y-47921384D01*
X74260027Y-47806365D01*
X74113635Y-47659973D01*
X73998616Y-47487835D01*
X73998615Y-47487833D01*
X73919389Y-47296564D01*
X73879000Y-47093516D01*
X73879000Y-46886484D01*
X73919389Y-46683436D01*
X73998615Y-46492167D01*
X74113635Y-46320027D01*
X74260027Y-46173635D01*
X74432165Y-46058616D01*
X74432167Y-46058615D01*
X74623436Y-45979389D01*
X74826484Y-45939000D01*
X75033516Y-45939000D01*
X75236564Y-45979389D01*
X75236564Y-45979389D01*
G37*
G36*
X70901000Y-48041000D02*
G01*
X68799000Y-48041000D01*
X68799000Y-45939000D01*
X70901000Y-45939000D01*
X70901000Y-48041000D01*
X70901000Y-48041000D01*
G37*
G36*
X67490547Y-40137326D02*
G01*
X67664156Y-40189990D01*
X67664158Y-40189991D01*
X67824155Y-40275511D01*
X67964397Y-40390603D01*
X68043729Y-40487271D01*
X68079489Y-40530844D01*
X68165010Y-40690843D01*
X68217674Y-40864452D01*
X68231000Y-40999756D01*
X68231000Y-41550243D01*
X68217674Y-41685548D01*
X68165010Y-41859157D01*
X68079489Y-42019156D01*
X68043729Y-42062729D01*
X67964397Y-42159397D01*
X67867729Y-42238729D01*
X67824156Y-42274489D01*
X67664157Y-42360010D01*
X67490548Y-42412674D01*
X67310000Y-42430456D01*
X67129453Y-42412674D01*
X66955844Y-42360010D01*
X66795845Y-42274489D01*
X66752272Y-42238729D01*
X66655604Y-42159397D01*
X66540513Y-42019157D01*
X66540512Y-42019155D01*
X66454990Y-41859157D01*
X66402326Y-41685548D01*
X66389000Y-41550244D01*
X66389000Y-40999757D01*
X66402326Y-40864453D01*
X66454990Y-40690844D01*
X66540511Y-40530845D01*
X66540512Y-40530844D01*
X66655603Y-40390603D01*
X66752271Y-40311271D01*
X66795844Y-40275511D01*
X66955843Y-40189990D01*
X67129452Y-40137326D01*
X67310000Y-40119544D01*
X67490547Y-40137326D01*
X67490547Y-40137326D01*
G37*
G36*
X70030547Y-40137326D02*
G01*
X70204156Y-40189990D01*
X70204158Y-40189991D01*
X70364155Y-40275511D01*
X70504397Y-40390603D01*
X70583729Y-40487271D01*
X70619489Y-40530844D01*
X70705010Y-40690843D01*
X70757674Y-40864452D01*
X70771000Y-40999756D01*
X70771000Y-41550243D01*
X70757674Y-41685548D01*
X70705010Y-41859157D01*
X70619489Y-42019156D01*
X70583729Y-42062729D01*
X70504397Y-42159397D01*
X70407729Y-42238729D01*
X70364156Y-42274489D01*
X70204157Y-42360010D01*
X70030548Y-42412674D01*
X69850000Y-42430456D01*
X69669453Y-42412674D01*
X69495844Y-42360010D01*
X69335845Y-42274489D01*
X69292272Y-42238729D01*
X69195604Y-42159397D01*
X69080513Y-42019157D01*
X69080512Y-42019155D01*
X68994990Y-41859157D01*
X68942326Y-41685548D01*
X68929000Y-41550244D01*
X68929000Y-40999757D01*
X68942326Y-40864453D01*
X68994990Y-40690844D01*
X69080511Y-40530845D01*
X69080512Y-40530844D01*
X69195603Y-40390603D01*
X69292271Y-40311271D01*
X69335844Y-40275511D01*
X69495843Y-40189990D01*
X69669452Y-40137326D01*
X69850000Y-40119544D01*
X70030547Y-40137326D01*
X70030547Y-40137326D01*
G37*
G36*
X72570547Y-40137326D02*
G01*
X72744156Y-40189990D01*
X72744158Y-40189991D01*
X72904155Y-40275511D01*
X73044397Y-40390603D01*
X73123729Y-40487271D01*
X73159489Y-40530844D01*
X73245010Y-40690843D01*
X73297674Y-40864452D01*
X73311000Y-40999756D01*
X73311000Y-41550243D01*
X73297674Y-41685548D01*
X73245010Y-41859157D01*
X73159489Y-42019156D01*
X73123729Y-42062729D01*
X73044397Y-42159397D01*
X72947729Y-42238729D01*
X72904156Y-42274489D01*
X72744157Y-42360010D01*
X72570548Y-42412674D01*
X72390000Y-42430456D01*
X72209453Y-42412674D01*
X72035844Y-42360010D01*
X71875845Y-42274489D01*
X71832272Y-42238729D01*
X71735604Y-42159397D01*
X71620513Y-42019157D01*
X71620512Y-42019155D01*
X71534990Y-41859157D01*
X71482326Y-41685548D01*
X71469000Y-41550244D01*
X71469000Y-40999757D01*
X71482326Y-40864453D01*
X71534990Y-40690844D01*
X71620511Y-40530845D01*
X71620512Y-40530844D01*
X71735603Y-40390603D01*
X71832271Y-40311271D01*
X71875844Y-40275511D01*
X72035843Y-40189990D01*
X72209452Y-40137326D01*
X72390000Y-40119544D01*
X72570547Y-40137326D01*
X72570547Y-40137326D01*
G37*
G36*
X75110547Y-40137326D02*
G01*
X75284156Y-40189990D01*
X75284158Y-40189991D01*
X75444155Y-40275511D01*
X75584397Y-40390603D01*
X75663729Y-40487271D01*
X75699489Y-40530844D01*
X75785010Y-40690843D01*
X75837674Y-40864452D01*
X75851000Y-40999756D01*
X75851000Y-41550243D01*
X75837674Y-41685548D01*
X75785010Y-41859157D01*
X75699489Y-42019156D01*
X75663729Y-42062729D01*
X75584397Y-42159397D01*
X75487729Y-42238729D01*
X75444156Y-42274489D01*
X75284157Y-42360010D01*
X75110548Y-42412674D01*
X74930000Y-42430456D01*
X74749453Y-42412674D01*
X74575844Y-42360010D01*
X74415845Y-42274489D01*
X74372272Y-42238729D01*
X74275604Y-42159397D01*
X74160513Y-42019157D01*
X74160512Y-42019155D01*
X74074990Y-41859157D01*
X74022326Y-41685548D01*
X74009000Y-41550244D01*
X74009000Y-40999757D01*
X74022326Y-40864453D01*
X74074990Y-40690844D01*
X74160511Y-40530845D01*
X74160512Y-40530844D01*
X74275603Y-40390603D01*
X74372271Y-40311271D01*
X74415844Y-40275511D01*
X74575843Y-40189990D01*
X74749452Y-40137326D01*
X74930000Y-40119544D01*
X75110547Y-40137326D01*
X75110547Y-40137326D01*
G37*
G36*
X65691000Y-42426000D02*
G01*
X63849000Y-42426000D01*
X63849000Y-40124000D01*
X65691000Y-40124000D01*
X65691000Y-42426000D01*
X65691000Y-42426000D01*
G37*
G36*
X60008433Y-38639893D02*
G01*
X60098657Y-38657839D01*
X60204267Y-38701585D01*
X60353621Y-38763449D01*
X60353622Y-38763450D01*
X60583086Y-38916772D01*
X60778228Y-39111914D01*
X60880675Y-39265237D01*
X60931551Y-39341379D01*
X61037161Y-39596344D01*
X61091000Y-39867012D01*
X61091000Y-40142988D01*
X61037161Y-40413656D01*
X60931551Y-40668621D01*
X60916702Y-40690844D01*
X60778228Y-40898086D01*
X60583086Y-41093228D01*
X60429763Y-41195675D01*
X60353621Y-41246551D01*
X60204267Y-41308415D01*
X60098657Y-41352161D01*
X60008433Y-41370107D01*
X59827988Y-41406000D01*
X59552012Y-41406000D01*
X59371567Y-41370107D01*
X59281343Y-41352161D01*
X59175733Y-41308415D01*
X59026379Y-41246551D01*
X58950237Y-41195675D01*
X58796914Y-41093228D01*
X58601772Y-40898086D01*
X58463298Y-40690844D01*
X58448449Y-40668621D01*
X58342839Y-40413656D01*
X58289000Y-40142988D01*
X58289000Y-39867012D01*
X58342839Y-39596344D01*
X58448449Y-39341379D01*
X58499325Y-39265237D01*
X58601772Y-39111914D01*
X58796914Y-38916772D01*
X59026378Y-38763450D01*
X59026379Y-38763449D01*
X59175733Y-38701585D01*
X59281343Y-38657839D01*
X59371567Y-38639893D01*
X59552012Y-38604000D01*
X59827988Y-38604000D01*
X60008433Y-38639893D01*
X60008433Y-38639893D01*
G37*
G36*
X80328433Y-38639893D02*
G01*
X80418657Y-38657839D01*
X80524267Y-38701585D01*
X80673621Y-38763449D01*
X80673622Y-38763450D01*
X80903086Y-38916772D01*
X81098228Y-39111914D01*
X81200675Y-39265237D01*
X81251551Y-39341379D01*
X81357161Y-39596344D01*
X81411000Y-39867012D01*
X81411000Y-40142988D01*
X81357161Y-40413656D01*
X81251551Y-40668621D01*
X81236702Y-40690844D01*
X81098228Y-40898086D01*
X80903086Y-41093228D01*
X80749763Y-41195675D01*
X80673621Y-41246551D01*
X80524267Y-41308415D01*
X80418657Y-41352161D01*
X80328433Y-41370107D01*
X80147988Y-41406000D01*
X79872012Y-41406000D01*
X79691567Y-41370107D01*
X79601343Y-41352161D01*
X79495733Y-41308415D01*
X79346379Y-41246551D01*
X79270237Y-41195675D01*
X79116914Y-41093228D01*
X78921772Y-40898086D01*
X78783298Y-40690844D01*
X78768449Y-40668621D01*
X78662839Y-40413656D01*
X78609000Y-40142988D01*
X78609000Y-39867012D01*
X78662839Y-39596344D01*
X78768449Y-39341379D01*
X78819325Y-39265237D01*
X78921772Y-39111914D01*
X79116914Y-38916772D01*
X79346378Y-38763450D01*
X79346379Y-38763449D01*
X79495733Y-38701585D01*
X79601343Y-38657839D01*
X79691567Y-38639893D01*
X79872012Y-38604000D01*
X80147988Y-38604000D01*
X80328433Y-38639893D01*
X80328433Y-38639893D01*
G37*
M02*
