G04 #@! TF.GenerationSoftware,KiCad,Pcbnew,(5.1.2)-2*
G04 #@! TF.CreationDate,2019-12-14T12:33:53+00:00*
G04 #@! TF.ProjectId,PlutoPTT,506c7574-6f50-4545-942e-6b696361645f,rev?*
G04 #@! TF.SameCoordinates,Original*
G04 #@! TF.FileFunction,Legend,Top*
G04 #@! TF.FilePolarity,Positive*
%FSLAX46Y46*%
G04 Gerber Fmt 4.6, Leading zero omitted, Abs format (unit mm)*
G04 Created by KiCad (PCBNEW (5.1.2)-2) date 2019-12-14 12:33:53*
%MOMM*%
%LPD*%
G04 APERTURE LIST*
%ADD10C,0.100000*%
%ADD11C,0.120000*%
%ADD12C,0.150000*%
G04 APERTURE END LIST*
D10*
X64061333Y-56479000D02*
X63994666Y-56445666D01*
X63894666Y-56445666D01*
X63794666Y-56479000D01*
X63728000Y-56545666D01*
X63694666Y-56612333D01*
X63661333Y-56745666D01*
X63661333Y-56845666D01*
X63694666Y-56979000D01*
X63728000Y-57045666D01*
X63794666Y-57112333D01*
X63894666Y-57145666D01*
X63961333Y-57145666D01*
X64061333Y-57112333D01*
X64094666Y-57079000D01*
X64094666Y-56845666D01*
X63961333Y-56845666D01*
X64528000Y-56445666D02*
X64594666Y-56445666D01*
X64661333Y-56479000D01*
X64694666Y-56512333D01*
X64728000Y-56579000D01*
X64761333Y-56712333D01*
X64761333Y-56879000D01*
X64728000Y-57012333D01*
X64694666Y-57079000D01*
X64661333Y-57112333D01*
X64594666Y-57145666D01*
X64528000Y-57145666D01*
X64461333Y-57112333D01*
X64428000Y-57079000D01*
X64394666Y-57012333D01*
X64361333Y-56879000D01*
X64361333Y-56712333D01*
X64394666Y-56579000D01*
X64428000Y-56512333D01*
X64461333Y-56479000D01*
X64528000Y-56445666D01*
X65061333Y-57145666D02*
X65061333Y-56445666D01*
X65294666Y-56945666D01*
X65528000Y-56445666D01*
X65528000Y-57145666D01*
X66061333Y-56445666D02*
X66061333Y-56945666D01*
X66028000Y-57045666D01*
X65961333Y-57112333D01*
X65861333Y-57145666D01*
X65794666Y-57145666D01*
X66328000Y-56445666D02*
X66494666Y-57145666D01*
X66628000Y-56645666D01*
X66761333Y-57145666D01*
X66928000Y-56445666D01*
X62928000Y-58295666D02*
X62928000Y-57595666D01*
X63194666Y-57595666D01*
X63261333Y-57629000D01*
X63294666Y-57662333D01*
X63328000Y-57729000D01*
X63328000Y-57829000D01*
X63294666Y-57895666D01*
X63261333Y-57929000D01*
X63194666Y-57962333D01*
X62928000Y-57962333D01*
X63728000Y-58295666D02*
X63661333Y-58262333D01*
X63628000Y-58195666D01*
X63628000Y-57595666D01*
X64294666Y-57829000D02*
X64294666Y-58295666D01*
X63994666Y-57829000D02*
X63994666Y-58195666D01*
X64028000Y-58262333D01*
X64094666Y-58295666D01*
X64194666Y-58295666D01*
X64261333Y-58262333D01*
X64294666Y-58229000D01*
X64528000Y-57829000D02*
X64794666Y-57829000D01*
X64628000Y-57595666D02*
X64628000Y-58195666D01*
X64661333Y-58262333D01*
X64728000Y-58295666D01*
X64794666Y-58295666D01*
X65128000Y-58295666D02*
X65061333Y-58262333D01*
X65028000Y-58229000D01*
X64994666Y-58162333D01*
X64994666Y-57962333D01*
X65028000Y-57895666D01*
X65061333Y-57862333D01*
X65128000Y-57829000D01*
X65228000Y-57829000D01*
X65294666Y-57862333D01*
X65328000Y-57895666D01*
X65361333Y-57962333D01*
X65361333Y-58162333D01*
X65328000Y-58229000D01*
X65294666Y-58262333D01*
X65228000Y-58295666D01*
X65128000Y-58295666D01*
X66194666Y-58295666D02*
X66194666Y-57595666D01*
X66461333Y-57595666D01*
X66528000Y-57629000D01*
X66561333Y-57662333D01*
X66594666Y-57729000D01*
X66594666Y-57829000D01*
X66561333Y-57895666D01*
X66528000Y-57929000D01*
X66461333Y-57962333D01*
X66194666Y-57962333D01*
X66794666Y-57595666D02*
X67194666Y-57595666D01*
X66994666Y-58295666D02*
X66994666Y-57595666D01*
X67328000Y-57595666D02*
X67728000Y-57595666D01*
X67528000Y-58295666D02*
X67528000Y-57595666D01*
D11*
X63390000Y-38245000D02*
X63390000Y-44265000D01*
X63390000Y-44265000D02*
X76310000Y-44265000D01*
X76310000Y-44265000D02*
X76310000Y-38245000D01*
X76310000Y-38245000D02*
X63390000Y-38245000D01*
X63100000Y-39275000D02*
X63100000Y-43275000D01*
X64770000Y-44265000D02*
X64770000Y-43265000D01*
X64770000Y-43265000D02*
X74930000Y-43265000D01*
X74930000Y-43265000D02*
X74930000Y-44265000D01*
X64770000Y-43265000D02*
X65020000Y-42735000D01*
X65020000Y-42735000D02*
X74680000Y-42735000D01*
X74680000Y-42735000D02*
X74930000Y-43265000D01*
X65020000Y-44265000D02*
X65020000Y-43265000D01*
X74680000Y-44265000D02*
X74680000Y-43265000D01*
X63970000Y-38245000D02*
X63970000Y-38845000D01*
X63970000Y-38845000D02*
X65570000Y-38845000D01*
X65570000Y-38845000D02*
X65570000Y-38245000D01*
X66510000Y-38245000D02*
X66510000Y-38845000D01*
X66510000Y-38845000D02*
X68110000Y-38845000D01*
X68110000Y-38845000D02*
X68110000Y-38245000D01*
X69050000Y-38245000D02*
X69050000Y-38845000D01*
X69050000Y-38845000D02*
X70650000Y-38845000D01*
X70650000Y-38845000D02*
X70650000Y-38245000D01*
X71590000Y-38245000D02*
X71590000Y-38845000D01*
X71590000Y-38845000D02*
X73190000Y-38845000D01*
X73190000Y-38845000D02*
X73190000Y-38245000D01*
X74130000Y-38245000D02*
X74130000Y-38845000D01*
X74130000Y-38845000D02*
X75730000Y-38845000D01*
X75730000Y-38845000D02*
X75730000Y-38245000D01*
X68250000Y-45490000D02*
X70450000Y-45490000D01*
X68250000Y-47590000D02*
X68250000Y-45490000D01*
X68450000Y-58390000D02*
X68450000Y-45690000D01*
X76250000Y-58390000D02*
X68450000Y-58390000D01*
X76250000Y-45690000D02*
X76250000Y-58390000D01*
X68450000Y-45690000D02*
X76250000Y-45690000D01*
X72796000Y-50800000D02*
X72161000Y-51816000D01*
X70612000Y-50673000D02*
X70612000Y-51308000D01*
X70612000Y-51308000D02*
X71272000Y-51308000D01*
X73812000Y-50673000D02*
X73812000Y-51308000D01*
X73812000Y-51308000D02*
X73177000Y-51308000D01*
X73177000Y-50800000D02*
X71272000Y-50800000D01*
X71272000Y-50800000D02*
X71272000Y-51816000D01*
X71272000Y-51816000D02*
X73177000Y-51816000D01*
X73177000Y-50800000D02*
X73177000Y-51816000D01*
X66604000Y-51310000D02*
X65674000Y-51310000D01*
X63444000Y-51310000D02*
X64374000Y-51310000D01*
X63444000Y-51310000D02*
X63444000Y-53470000D01*
X66604000Y-51310000D02*
X66604000Y-52770000D01*
X58980000Y-46616252D02*
X58980000Y-46093748D01*
X60400000Y-46616252D02*
X60400000Y-46093748D01*
X64845000Y-47886252D02*
X64845000Y-47363748D01*
X63425000Y-47886252D02*
X63425000Y-47363748D01*
X77725000Y-53295000D02*
X81025000Y-53295000D01*
X81025000Y-53295000D02*
X81025000Y-46395000D01*
X77725000Y-53295000D02*
X77725000Y-46395000D01*
X59253000Y-51687000D02*
X60183000Y-51687000D01*
X62413000Y-51687000D02*
X61483000Y-51687000D01*
X62413000Y-51687000D02*
X62413000Y-49527000D01*
X59253000Y-51687000D02*
X59253000Y-50227000D01*
D12*
X61896666Y-41997380D02*
X61896666Y-42711666D01*
X61849047Y-42854523D01*
X61753809Y-42949761D01*
X61610952Y-42997380D01*
X61515714Y-42997380D01*
X62896666Y-42997380D02*
X62325238Y-42997380D01*
X62610952Y-42997380D02*
X62610952Y-41997380D01*
X62515714Y-42140238D01*
X62420476Y-42235476D01*
X62325238Y-42283095D01*
X66444904Y-47950380D02*
X66444904Y-46950380D01*
X67016333Y-47950380D02*
X66587761Y-47378952D01*
X67016333Y-46950380D02*
X66444904Y-47521809D01*
X67968714Y-47950380D02*
X67397285Y-47950380D01*
X67683000Y-47950380D02*
X67683000Y-46950380D01*
X67587761Y-47093238D01*
X67492523Y-47188476D01*
X67397285Y-47236095D01*
X65817761Y-50331619D02*
X65722523Y-50284000D01*
X65627285Y-50188761D01*
X65484428Y-50045904D01*
X65389190Y-49998285D01*
X65293952Y-49998285D01*
X65341571Y-50236380D02*
X65246333Y-50188761D01*
X65151095Y-50093523D01*
X65103476Y-49903047D01*
X65103476Y-49569714D01*
X65151095Y-49379238D01*
X65246333Y-49284000D01*
X65341571Y-49236380D01*
X65532047Y-49236380D01*
X65627285Y-49284000D01*
X65722523Y-49379238D01*
X65770142Y-49569714D01*
X65770142Y-49903047D01*
X65722523Y-50093523D01*
X65627285Y-50188761D01*
X65532047Y-50236380D01*
X65341571Y-50236380D01*
X66722523Y-50236380D02*
X66151095Y-50236380D01*
X66436809Y-50236380D02*
X66436809Y-49236380D01*
X66341571Y-49379238D01*
X66246333Y-49474476D01*
X66151095Y-49522095D01*
X58253333Y-44267380D02*
X57920000Y-43791190D01*
X57681904Y-44267380D02*
X57681904Y-43267380D01*
X58062857Y-43267380D01*
X58158095Y-43315000D01*
X58205714Y-43362619D01*
X58253333Y-43457857D01*
X58253333Y-43600714D01*
X58205714Y-43695952D01*
X58158095Y-43743571D01*
X58062857Y-43791190D01*
X57681904Y-43791190D01*
X59205714Y-44267380D02*
X58634285Y-44267380D01*
X58920000Y-44267380D02*
X58920000Y-43267380D01*
X58824761Y-43410238D01*
X58729523Y-43505476D01*
X58634285Y-43553095D01*
X62063333Y-46172380D02*
X61730000Y-45696190D01*
X61491904Y-46172380D02*
X61491904Y-45172380D01*
X61872857Y-45172380D01*
X61968095Y-45220000D01*
X62015714Y-45267619D01*
X62063333Y-45362857D01*
X62063333Y-45505714D01*
X62015714Y-45600952D01*
X61968095Y-45648571D01*
X61872857Y-45696190D01*
X61491904Y-45696190D01*
X62444285Y-45267619D02*
X62491904Y-45220000D01*
X62587142Y-45172380D01*
X62825238Y-45172380D01*
X62920476Y-45220000D01*
X62968095Y-45267619D01*
X63015714Y-45362857D01*
X63015714Y-45458095D01*
X62968095Y-45600952D01*
X62396666Y-46172380D01*
X63015714Y-46172380D01*
X78636904Y-44013380D02*
X78636904Y-43013380D01*
X78875000Y-43013380D01*
X79017857Y-43061000D01*
X79113095Y-43156238D01*
X79160714Y-43251476D01*
X79208333Y-43441952D01*
X79208333Y-43584809D01*
X79160714Y-43775285D01*
X79113095Y-43870523D01*
X79017857Y-43965761D01*
X78875000Y-44013380D01*
X78636904Y-44013380D01*
X79589285Y-43108619D02*
X79636904Y-43061000D01*
X79732142Y-43013380D01*
X79970238Y-43013380D01*
X80065476Y-43061000D01*
X80113095Y-43108619D01*
X80160714Y-43203857D01*
X80160714Y-43299095D01*
X80113095Y-43441952D01*
X79541666Y-44013380D01*
X80160714Y-44013380D01*
X61372761Y-49061619D02*
X61277523Y-49014000D01*
X61182285Y-48918761D01*
X61039428Y-48775904D01*
X60944190Y-48728285D01*
X60848952Y-48728285D01*
X60896571Y-48966380D02*
X60801333Y-48918761D01*
X60706095Y-48823523D01*
X60658476Y-48633047D01*
X60658476Y-48299714D01*
X60706095Y-48109238D01*
X60801333Y-48014000D01*
X60896571Y-47966380D01*
X61087047Y-47966380D01*
X61182285Y-48014000D01*
X61277523Y-48109238D01*
X61325142Y-48299714D01*
X61325142Y-48633047D01*
X61277523Y-48823523D01*
X61182285Y-48918761D01*
X61087047Y-48966380D01*
X60896571Y-48966380D01*
X61706095Y-48061619D02*
X61753714Y-48014000D01*
X61848952Y-47966380D01*
X62087047Y-47966380D01*
X62182285Y-48014000D01*
X62229904Y-48061619D01*
X62277523Y-48156857D01*
X62277523Y-48252095D01*
X62229904Y-48394952D01*
X61658476Y-48966380D01*
X62277523Y-48966380D01*
M02*
