G04 #@! TF.GenerationSoftware,KiCad,Pcbnew,(5.1.2)-2*
G04 #@! TF.CreationDate,2019-12-14T12:33:53+00:00*
G04 #@! TF.ProjectId,PlutoPTT,506c7574-6f50-4545-942e-6b696361645f,rev?*
G04 #@! TF.SameCoordinates,Original*
G04 #@! TF.FileFunction,Copper,L2,Bot*
G04 #@! TF.FilePolarity,Positive*
%FSLAX46Y46*%
G04 Gerber Fmt 4.6, Leading zero omitted, Abs format (unit mm)*
G04 Created by KiCad (PCBNEW (5.1.2)-2) date 2019-12-14 12:33:53*
%MOMM*%
%LPD*%
G04 APERTURE LIST*
%ADD10R,1.740000X2.200000*%
%ADD11O,1.740000X2.200000*%
%ADD12C,2.000000*%
%ADD13R,2.000000X2.000000*%
%ADD14C,2.700000*%
%ADD15C,0.800000*%
%ADD16C,1.000000*%
%ADD17C,0.500000*%
G04 APERTURE END LIST*
D10*
X64770000Y-41275000D03*
D11*
X67310000Y-41275000D03*
X69850000Y-41275000D03*
X72390000Y-41275000D03*
X74930000Y-41275000D03*
D12*
X74930000Y-46990000D03*
X74930000Y-49530000D03*
D13*
X69850000Y-46990000D03*
D12*
X69850000Y-49530000D03*
X74930000Y-57150000D03*
X69850000Y-57150000D03*
D14*
X59690000Y-40005000D03*
X80010000Y-40005000D03*
X80010000Y-57150000D03*
X59690000Y-57150000D03*
D15*
X59817000Y-49911000D03*
X65974000Y-53070000D03*
D16*
X74930000Y-41275000D02*
X74930000Y-46990000D01*
D17*
G36*
X81250000Y-58390000D02*
G01*
X58450000Y-58390000D01*
X58450000Y-45990000D01*
X67593952Y-45990000D01*
X67593952Y-47990000D01*
X67618087Y-48235043D01*
X67689563Y-48470669D01*
X67781872Y-48643368D01*
X67686466Y-48873699D01*
X67600000Y-49308394D01*
X67600000Y-49751606D01*
X67686466Y-50186301D01*
X67856076Y-50595775D01*
X68102311Y-50964292D01*
X68415708Y-51277689D01*
X68784225Y-51523924D01*
X69193699Y-51693534D01*
X69628394Y-51780000D01*
X70071606Y-51780000D01*
X70506301Y-51693534D01*
X70915775Y-51523924D01*
X71284292Y-51277689D01*
X71597689Y-50964292D01*
X71843924Y-50595775D01*
X72013534Y-50186301D01*
X72100000Y-49751606D01*
X72100000Y-49308394D01*
X72013534Y-48873699D01*
X71918128Y-48643368D01*
X72010437Y-48470669D01*
X72081913Y-48235043D01*
X72106048Y-47990000D01*
X72106048Y-45990000D01*
X72081913Y-45744957D01*
X72010437Y-45509331D01*
X71894366Y-45292177D01*
X71738160Y-45101840D01*
X71547823Y-44945634D01*
X71330669Y-44829563D01*
X71095043Y-44758087D01*
X70850000Y-44733952D01*
X68850000Y-44733952D01*
X68604957Y-44758087D01*
X68369331Y-44829563D01*
X68152177Y-44945634D01*
X67961840Y-45101840D01*
X67805634Y-45292177D01*
X67689563Y-45509331D01*
X67618087Y-45744957D01*
X67593952Y-45990000D01*
X58450000Y-45990000D01*
X58450000Y-40940859D01*
X65190000Y-40940859D01*
X65190000Y-41609142D01*
X65220675Y-41920593D01*
X65341899Y-42320214D01*
X65538756Y-42688507D01*
X65803682Y-43011319D01*
X66126494Y-43276244D01*
X66494787Y-43473101D01*
X66894408Y-43594325D01*
X67310000Y-43635257D01*
X67725593Y-43594325D01*
X68125214Y-43473101D01*
X68493507Y-43276244D01*
X68580001Y-43205261D01*
X68666494Y-43276244D01*
X69034787Y-43473101D01*
X69434408Y-43594325D01*
X69850000Y-43635257D01*
X70265593Y-43594325D01*
X70665214Y-43473101D01*
X71033507Y-43276244D01*
X71120001Y-43205261D01*
X71206494Y-43276244D01*
X71574787Y-43473101D01*
X71974408Y-43594325D01*
X72390000Y-43635257D01*
X72805593Y-43594325D01*
X73180000Y-43480749D01*
X73180001Y-45559166D01*
X72936076Y-45924225D01*
X72766466Y-46333699D01*
X72680000Y-46768394D01*
X72680000Y-47211606D01*
X72766466Y-47646301D01*
X72936076Y-48055775D01*
X73072535Y-48260000D01*
X72936076Y-48464225D01*
X72766466Y-48873699D01*
X72680000Y-49308394D01*
X72680000Y-49751606D01*
X72766466Y-50186301D01*
X72936076Y-50595775D01*
X73182311Y-50964292D01*
X73495708Y-51277689D01*
X73864225Y-51523924D01*
X74273699Y-51693534D01*
X74708394Y-51780000D01*
X75151606Y-51780000D01*
X75586301Y-51693534D01*
X75995775Y-51523924D01*
X76364292Y-51277689D01*
X76677689Y-50964292D01*
X76923924Y-50595775D01*
X77093534Y-50186301D01*
X77180000Y-49751606D01*
X77180000Y-49308394D01*
X77093534Y-48873699D01*
X76923924Y-48464225D01*
X76787465Y-48260000D01*
X76923924Y-48055775D01*
X77093534Y-47646301D01*
X77180000Y-47211606D01*
X77180000Y-46768394D01*
X77093534Y-46333699D01*
X76923924Y-45924225D01*
X76680000Y-45559167D01*
X76680000Y-42714393D01*
X76701244Y-42688507D01*
X76898101Y-42320213D01*
X77019325Y-41920592D01*
X77050000Y-41609141D01*
X77050000Y-40940858D01*
X77019325Y-40629407D01*
X76898101Y-40229786D01*
X76701244Y-39861493D01*
X76436319Y-39538681D01*
X76113507Y-39273756D01*
X75745213Y-39076899D01*
X75345592Y-38955675D01*
X74930000Y-38914743D01*
X74514407Y-38955675D01*
X74114786Y-39076899D01*
X73746493Y-39273756D01*
X73660000Y-39344739D01*
X73573507Y-39273756D01*
X73205213Y-39076899D01*
X72805592Y-38955675D01*
X72390000Y-38914743D01*
X71974407Y-38955675D01*
X71574786Y-39076899D01*
X71206493Y-39273756D01*
X71120000Y-39344739D01*
X71033507Y-39273756D01*
X70665213Y-39076899D01*
X70265592Y-38955675D01*
X69850000Y-38914743D01*
X69434407Y-38955675D01*
X69034786Y-39076899D01*
X68666493Y-39273756D01*
X68580000Y-39344739D01*
X68493507Y-39273756D01*
X68125213Y-39076899D01*
X67725592Y-38955675D01*
X67310000Y-38914743D01*
X66894407Y-38955675D01*
X66494786Y-39076899D01*
X66126493Y-39273756D01*
X65803681Y-39538681D01*
X65538756Y-39861493D01*
X65341899Y-40229787D01*
X65220675Y-40629408D01*
X65190000Y-40940859D01*
X58450000Y-40940859D01*
X58450000Y-38765000D01*
X81250001Y-38765000D01*
X81250000Y-58390000D01*
X81250000Y-58390000D01*
G37*
X81250000Y-58390000D02*
X58450000Y-58390000D01*
X58450000Y-45990000D01*
X67593952Y-45990000D01*
X67593952Y-47990000D01*
X67618087Y-48235043D01*
X67689563Y-48470669D01*
X67781872Y-48643368D01*
X67686466Y-48873699D01*
X67600000Y-49308394D01*
X67600000Y-49751606D01*
X67686466Y-50186301D01*
X67856076Y-50595775D01*
X68102311Y-50964292D01*
X68415708Y-51277689D01*
X68784225Y-51523924D01*
X69193699Y-51693534D01*
X69628394Y-51780000D01*
X70071606Y-51780000D01*
X70506301Y-51693534D01*
X70915775Y-51523924D01*
X71284292Y-51277689D01*
X71597689Y-50964292D01*
X71843924Y-50595775D01*
X72013534Y-50186301D01*
X72100000Y-49751606D01*
X72100000Y-49308394D01*
X72013534Y-48873699D01*
X71918128Y-48643368D01*
X72010437Y-48470669D01*
X72081913Y-48235043D01*
X72106048Y-47990000D01*
X72106048Y-45990000D01*
X72081913Y-45744957D01*
X72010437Y-45509331D01*
X71894366Y-45292177D01*
X71738160Y-45101840D01*
X71547823Y-44945634D01*
X71330669Y-44829563D01*
X71095043Y-44758087D01*
X70850000Y-44733952D01*
X68850000Y-44733952D01*
X68604957Y-44758087D01*
X68369331Y-44829563D01*
X68152177Y-44945634D01*
X67961840Y-45101840D01*
X67805634Y-45292177D01*
X67689563Y-45509331D01*
X67618087Y-45744957D01*
X67593952Y-45990000D01*
X58450000Y-45990000D01*
X58450000Y-40940859D01*
X65190000Y-40940859D01*
X65190000Y-41609142D01*
X65220675Y-41920593D01*
X65341899Y-42320214D01*
X65538756Y-42688507D01*
X65803682Y-43011319D01*
X66126494Y-43276244D01*
X66494787Y-43473101D01*
X66894408Y-43594325D01*
X67310000Y-43635257D01*
X67725593Y-43594325D01*
X68125214Y-43473101D01*
X68493507Y-43276244D01*
X68580001Y-43205261D01*
X68666494Y-43276244D01*
X69034787Y-43473101D01*
X69434408Y-43594325D01*
X69850000Y-43635257D01*
X70265593Y-43594325D01*
X70665214Y-43473101D01*
X71033507Y-43276244D01*
X71120001Y-43205261D01*
X71206494Y-43276244D01*
X71574787Y-43473101D01*
X71974408Y-43594325D01*
X72390000Y-43635257D01*
X72805593Y-43594325D01*
X73180000Y-43480749D01*
X73180001Y-45559166D01*
X72936076Y-45924225D01*
X72766466Y-46333699D01*
X72680000Y-46768394D01*
X72680000Y-47211606D01*
X72766466Y-47646301D01*
X72936076Y-48055775D01*
X73072535Y-48260000D01*
X72936076Y-48464225D01*
X72766466Y-48873699D01*
X72680000Y-49308394D01*
X72680000Y-49751606D01*
X72766466Y-50186301D01*
X72936076Y-50595775D01*
X73182311Y-50964292D01*
X73495708Y-51277689D01*
X73864225Y-51523924D01*
X74273699Y-51693534D01*
X74708394Y-51780000D01*
X75151606Y-51780000D01*
X75586301Y-51693534D01*
X75995775Y-51523924D01*
X76364292Y-51277689D01*
X76677689Y-50964292D01*
X76923924Y-50595775D01*
X77093534Y-50186301D01*
X77180000Y-49751606D01*
X77180000Y-49308394D01*
X77093534Y-48873699D01*
X76923924Y-48464225D01*
X76787465Y-48260000D01*
X76923924Y-48055775D01*
X77093534Y-47646301D01*
X77180000Y-47211606D01*
X77180000Y-46768394D01*
X77093534Y-46333699D01*
X76923924Y-45924225D01*
X76680000Y-45559167D01*
X76680000Y-42714393D01*
X76701244Y-42688507D01*
X76898101Y-42320213D01*
X77019325Y-41920592D01*
X77050000Y-41609141D01*
X77050000Y-40940858D01*
X77019325Y-40629407D01*
X76898101Y-40229786D01*
X76701244Y-39861493D01*
X76436319Y-39538681D01*
X76113507Y-39273756D01*
X75745213Y-39076899D01*
X75345592Y-38955675D01*
X74930000Y-38914743D01*
X74514407Y-38955675D01*
X74114786Y-39076899D01*
X73746493Y-39273756D01*
X73660000Y-39344739D01*
X73573507Y-39273756D01*
X73205213Y-39076899D01*
X72805592Y-38955675D01*
X72390000Y-38914743D01*
X71974407Y-38955675D01*
X71574786Y-39076899D01*
X71206493Y-39273756D01*
X71120000Y-39344739D01*
X71033507Y-39273756D01*
X70665213Y-39076899D01*
X70265592Y-38955675D01*
X69850000Y-38914743D01*
X69434407Y-38955675D01*
X69034786Y-39076899D01*
X68666493Y-39273756D01*
X68580000Y-39344739D01*
X68493507Y-39273756D01*
X68125213Y-39076899D01*
X67725592Y-38955675D01*
X67310000Y-38914743D01*
X66894407Y-38955675D01*
X66494786Y-39076899D01*
X66126493Y-39273756D01*
X65803681Y-39538681D01*
X65538756Y-39861493D01*
X65341899Y-40229787D01*
X65220675Y-40629408D01*
X65190000Y-40940859D01*
X58450000Y-40940859D01*
X58450000Y-38765000D01*
X81250001Y-38765000D01*
X81250000Y-58390000D01*
M02*
